<?xml version="1.0" encoding="UTF-8" standalone="no"?>
<!DOCTYPE svg PUBLIC "-//W3C//DTD SVG 1.1//EN" "http://www.w3.org/Graphics/SVG/1.1/DTD/svg11.dtd">
<svg width="100%" height="100%" viewBox="0 0 24 24" version="1.1" xmlns="http://www.w3.org/2000/svg" xmlns:xlink="http://www.w3.org/1999/xlink" xml:space="preserve" xmlns:serif="http://www.serif.com/" style="fill-rule:evenodd;clip-rule:evenodd;stroke-linejoin:round;stroke-miterlimit:2;">
    <path d="M24,20L17.545,24L12,20L6.455,24L0,20L0,0L6.455,4L12,0L17.545,4L24,0L24,20ZM12.5,7L11.5,7L11.5,1.594L7,4.84L7,9L6,9L6,4.894L1,1.796L1,19.443L6,22.542L6,16L7,16L7,22.374L11.5,19.128L11.5,14L12.5,14L12.5,19.128L17,22.374L17,17L18,17L18,22.542L23,19.443L23,1.796L18,4.894L18,8L17,8L17,4.84L12.5,1.594L12.5,7ZM20.672,14.016L19.376,12.742L20.649,11.449L19.941,10.747L18.669,12.041L17.375,10.77L16.672,11.472L17.968,12.748L16.695,14.044L17.398,14.747L18.675,13.449L19.97,14.724L20.672,14.016ZM6.57,13.41C6.197,13.41 5.829,13.344 5.478,13.215L5.885,12.11C6.106,12.191 6.336,12.232 6.57,12.232C6.83,12.232 7.084,12.182 7.324,12.083L7.772,13.173C7.389,13.33 6.985,13.41 6.57,13.41ZM3.969,11.036C3.434,11.036 3,11.469 3,12.004C3,12.538 3.434,12.972 3.969,12.972C4.504,12.972 4.938,12.538 4.938,12.004C4.938,11.469 4.504,11.036 3.969,11.036ZM15.24,12.627L13.581,11.682L14.164,10.658L15.824,11.603L15.24,12.627ZM8.785,12.607L8.18,11.596L9.818,10.615L10.424,11.625L8.785,12.607ZM12.703,11.199C12.46,11.098 12.203,11.046 11.94,11.046C11.709,11.046 11.483,11.086 11.266,11.164L10.864,10.056C11.21,9.931 11.572,9.868 11.94,9.868C12.359,9.868 12.77,9.95 13.156,10.111L12.703,11.199Z" style="fill:rgb(232,68,68);"/>
</svg>
