<?xml version="1.0" encoding="UTF-8" standalone="no"?>
<!DOCTYPE svg PUBLIC "-//W3C//DTD SVG 1.1//EN" "http://www.w3.org/Graphics/SVG/1.1/DTD/svg11.dtd">
<svg width="100%" height="100%" viewBox="0 0 24 24" version="1.1" xmlns="http://www.w3.org/2000/svg" xmlns:xlink="http://www.w3.org/1999/xlink" xml:space="preserve" xmlns:serif="http://www.serif.com/" style="fill-rule:evenodd;clip-rule:evenodd;stroke-linejoin:round;stroke-miterlimit:2;">
    <path d="M19.092,6.863C17.588,9.173 17.313,11.313 17.411,12.551C23.543,12.45 23.107,19 18.801,19C16.971,19 15,17.662 15,14.725C15,12.001 16.412,8.88 19.092,6.863ZM6.092,6.863C4.588,9.173 4.313,11.313 4.411,12.551C10.543,12.45 10.107,19 5.801,19C3.971,19 2,17.662 2,14.725C2,12.001 3.412,8.88 6.092,6.863ZM23,3C16.892,4.206 13,9.584 13,14.725C13,18.695 15.786,21 18.801,21C21.416,21 24,19.203 24,16.021C24,13.42 22.095,11.264 19.604,10.872C19.821,8.868 21.769,5.961 23.984,5.126L23,3ZM10,3C3.892,4.206 0,9.584 0,14.725C0,18.695 2.786,21 5.801,21C8.416,21 11,19.203 11,16.021C11,13.42 9.095,11.264 6.604,10.872C6.821,8.868 8.769,5.961 10.984,5.126L10,3Z" style="fill:rgb(238,113,113);fill-rule:nonzero;"/>
</svg>
