<?xml version="1.0" encoding="UTF-8" standalone="no"?>
<!DOCTYPE svg PUBLIC "-//W3C//DTD SVG 1.1//EN" "http://www.w3.org/Graphics/SVG/1.1/DTD/svg11.dtd">
<svg width="100%" height="100%" viewBox="0 0 24 24" version="1.1" xmlns="http://www.w3.org/2000/svg" xmlns:xlink="http://www.w3.org/1999/xlink" xml:space="preserve" xmlns:serif="http://www.serif.com/" style="fill-rule:evenodd;clip-rule:evenodd;stroke-linejoin:round;stroke-miterlimit:2;">
    <path d="M4.652,0L6.092,0L7.08,3.702L7.996,0L9.45,0L7.785,5.505L7.785,9.262L6.354,9.262L6.354,5.505L4.652,0ZM11.246,2.373C10.127,2.373 9.385,3.113 9.385,4.208L9.385,7.557C9.385,8.761 10.014,9.388 11.246,9.388C12.268,9.388 13.072,8.705 13.072,7.557L13.072,4.208C13.072,3.139 12.275,2.373 11.246,2.373ZM11.777,7.5C11.777,7.872 11.587,8.146 11.245,8.146C10.894,8.146 10.691,7.859 10.691,7.5L10.691,4.321C10.691,3.947 10.863,3.67 11.22,3.67C11.61,3.67 11.777,3.939 11.777,4.321L11.777,7.5ZM16.506,2.43L16.506,7.616C16.351,7.81 16.006,8.128 15.759,8.128C15.488,8.128 15.421,7.942 15.421,7.668L15.421,2.43L14.151,2.43L14.151,8.14C14.151,8.815 14.357,9.36 15.038,9.36C15.422,9.36 15.956,9.16 16.506,8.507L16.506,9.261L17.776,9.261L17.776,2.43L16.506,2.43ZM18.709,16.288C18.261,16.288 18.168,16.603 18.168,17.051L18.168,17.71L19.237,17.71L19.237,17.05C19.238,16.61 19.145,16.288 18.709,16.288ZM14.006,16.328C13.922,16.371 13.839,16.437 13.756,16.526L13.756,20.581C13.855,20.687 13.95,20.763 14.043,20.81C14.24,20.91 14.528,20.917 14.662,20.743C14.732,20.651 14.767,20.502 14.767,20.294L14.767,16.935C14.767,16.715 14.724,16.549 14.638,16.435C14.491,16.242 14.218,16.221 14.006,16.328ZM18.833,11.133C16.229,10.956 7.767,10.956 5.167,11.133C2.353,11.325 2.021,13.025 2,17.5C2.021,21.967 2.35,23.675 5.167,23.867C7.767,24.044 16.229,24.044 18.833,23.867C21.647,23.675 21.979,21.974 22,17.5C21.979,13.033 21.65,11.325 18.833,11.133ZM6.509,21.819L5.146,21.819L5.146,14.279L3.736,14.279L3.736,12.999L7.918,12.999L7.918,14.279L6.508,14.279L6.508,21.819L6.509,21.819ZM11.355,21.819L10.145,21.819L10.145,21.101C9.922,21.366 9.69,21.568 9.449,21.706C8.797,22.08 7.902,22.071 7.902,20.751L7.902,15.313L9.111,15.313L9.111,20.301C9.111,20.563 9.174,20.739 9.433,20.739C9.669,20.739 9.997,20.436 10.144,20.252L10.144,15.313L11.354,15.313L11.354,21.819L11.355,21.819ZM16.012,20.471C16.012,21.276 15.711,21.902 14.906,21.902C14.463,21.902 14.094,21.74 13.757,21.319L13.757,21.819L12.536,21.819L12.536,12.999L13.757,12.999L13.757,15.839C14.03,15.506 14.401,15.231 14.833,15.231C15.719,15.231 16.013,15.98 16.013,16.862L16.013,20.471L16.012,20.471ZM20.483,18.719L18.169,18.719L18.169,19.947C18.169,20.435 18.211,20.857 18.697,20.857C19.208,20.857 19.238,20.513 19.238,19.947L19.238,19.495L20.483,19.495L20.483,19.984C20.483,21.237 19.945,21.997 18.67,21.997C17.515,21.997 16.924,21.155 16.924,19.984L16.924,17.063C16.924,15.934 17.67,15.149 18.761,15.149C19.922,15.149 20.482,15.887 20.482,17.063L20.482,18.719L20.483,18.719Z" style="fill:white;fill-rule:nonzero;"/>
</svg>
